<svg width="32" height="31" viewBox="0 0 32 31" fill="none" xmlns="http://www.w3.org/2000/svg">
    <path fill-rule="evenodd" clip-rule="evenodd" d="M5.74374 1.9273C5.33462 1.63851 4.90273 1.62503 4.33333 1.62503H1C0.654822 1.62503 0.375 1.34521 0.375 1.00003C0.375 0.654852 0.654822 0.37503 1 0.37503H4.33333C4.34597 0.37503 4.35875 0.375023 4.37169 0.375015C4.91319 0.374705 5.71115 0.374247 6.46459 0.906092C7.23258 1.4482 7.8408 2.45294 8.27301 4.18178L8.27906 4.20599L10.2795 16.2084H24.3333C26.6972 16.2084 27.7032 14.7474 27.9071 14.1357L27.9107 14.1247L30.0981 8.2917H14.3333C13.9882 8.2917 13.7083 8.01187 13.7083 7.6667C13.7083 7.32152 13.9882 7.0417 14.3333 7.0417H31C31.205 7.0417 31.3969 7.14222 31.5137 7.3107C31.6305 7.47918 31.6572 7.69421 31.5852 7.88615L29.089 14.5428C28.7306 15.5999 27.2917 17.4584 24.3333 17.4584H10.4878L10.7745 19.1788C10.8937 19.5106 11.1708 20.0182 11.6178 20.4426C12.074 20.8757 12.6901 21.2084 13.5 21.2084H27.6667C28.0118 21.2084 28.2917 21.4882 28.2917 21.8334C28.2917 22.1785 28.0118 22.4584 27.6667 22.4584H13.5C12.3099 22.4584 11.3982 21.9577 10.7572 21.3491C10.1268 20.7506 9.74164 20.0347 9.57374 19.531L9.55823 19.4845L7.05432 4.46103C6.6542 2.87387 6.15425 2.21707 5.74374 1.9273Z" fill="#333333"/>
    <path fill-rule="evenodd" clip-rule="evenodd" d="M13.4999 28.9167C14.6505 28.9167 15.5833 27.984 15.5833 26.8334C15.5833 25.6828 14.6505 24.75 13.4999 24.75C12.3494 24.75 11.4166 25.6828 11.4166 26.8334C11.4166 27.984 12.3494 28.9167 13.4999 28.9167ZM13.4999 30.1667C15.3409 30.1667 16.8333 28.6743 16.8333 26.8334C16.8333 24.9924 15.3409 23.5 13.4999 23.5C11.659 23.5 10.1666 24.9924 10.1666 26.8334C10.1666 28.6743 11.659 30.1667 13.4999 30.1667Z" fill="#333333"/>
    <path fill-rule="evenodd" clip-rule="evenodd" d="M25.1667 28.9167C26.3173 28.9167 27.2501 27.984 27.2501 26.8334C27.2501 25.6828 26.3173 24.75 25.1667 24.75C24.0161 24.75 23.0834 25.6828 23.0834 26.8334C23.0834 27.984 24.0161 28.9167 25.1667 28.9167ZM25.1667 30.1667C27.0077 30.1667 28.5001 28.6743 28.5001 26.8334C28.5001 24.9924 27.0077 23.5 25.1667 23.5C23.3258 23.5 21.8334 24.9924 21.8334 26.8334C21.8334 28.6743 23.3258 30.1667 25.1667 30.1667Z" fill="#333333"/>
</svg>
