<svg width="104" height="40" viewBox="0 0 104 40" fill="none" xmlns="http://www.w3.org/2000/svg">
    <rect width="104" height="40" fill="white"/>
    <path d="M14.4714 8.76953C13.1974 8.76953 12.5338 9.24228 12.5338 9.24228V9.2468H12.5318V27.6253C12.5318 27.6253 11.3033 28.7419 8.72738 28.7419C5.84073 28.7419 4.26838 26.9756 4.26838 25.7466V9.24422V9.24228C4.26838 9.24228 3.59368 8.76953 2.28653 8.76953C0.974831 8.76953 0.300781 9.24228 0.300781 9.24228V9.24357V25.7123C0.300781 28.3292 3.99343 30.0975 5.13548 30.5671C6.46083 31.107 9.31433 31.0514 10.7697 30.9152C13.3833 30.6762 16.4071 29.1462 16.4071 29.1462V9.2468V9.24228C16.4078 9.24228 15.7441 8.76953 14.4714 8.76953Z" fill="#176EB5"/>
    <path d="M42.556 11.8347L41.6954 14.223C41.4601 14.0396 41.0174 13.8981 40.7815 13.8981C39.8968 13.8981 39.1019 14.5717 39.1019 15.5915V23.0089H36.6767V11.7888C36.6767 11.7888 36.9718 11.3464 37.8415 11.3464C38.7138 11.3464 38.9641 11.7888 38.9641 11.7888V13.0179H39.0102C39.4067 12.0917 40.2465 11.4885 41.2274 11.4885C41.7649 11.4885 42.2316 11.6261 42.556 11.8347ZM43.9333 9.49484C43.9333 8.75213 44.5404 8.14893 45.2853 8.14893C46.0341 8.14893 46.6393 8.75149 46.6393 9.49484C46.6393 10.2356 46.0335 10.8375 45.2853 10.8375C44.5404 10.8375 43.9333 10.2356 43.9333 9.49484ZM46.4989 11.7888V23.0096H44.0731V11.7888C44.0757 11.785 44.389 11.3464 45.3107 11.3464C46.2311 11.3464 46.4976 11.7843 46.4989 11.7888ZM55.5527 11.4885C54.0135 11.4885 52.7759 12.1602 52.0999 13.2032H52.0518V11.7888C52.0518 11.7888 51.7106 11.3464 50.8363 11.3464C49.9621 11.3464 49.6247 11.7888 49.6247 11.7888V23.0096H52.0512V16.7282C52.0512 14.8953 53.266 13.8981 54.8254 13.8981C56.4374 13.8981 57.5118 14.7345 57.5118 16.7734V23.0096H59.9396V16.2412C59.9402 13.4577 57.9311 11.4885 55.5527 11.4885ZM61.989 14.0615H63.367V18.9285C63.367 21.2716 64.5357 22.1293 67.0317 23.3099L68.1016 21.4098L66.7971 20.6703C66.0736 20.2506 65.7915 19.6945 65.7915 18.4894V14.0622H67.7318V11.7888H65.7915V8.14893L63.367 8.82188V11.7888H61.9884L61.989 14.0615ZM69.83 9.49484C69.83 8.75213 70.4345 8.14893 71.1833 8.14893C71.9295 8.14893 72.5372 8.75149 72.5372 9.49484C72.5372 10.2356 71.9295 10.8375 71.1833 10.8375C70.4338 10.8375 69.83 10.2356 69.83 9.49484ZM72.3968 11.7888V23.0096H69.9684V11.7888H69.9697C69.9717 11.785 70.2856 11.3464 71.2067 11.3464C72.129 11.3464 72.3949 11.7843 72.3968 11.7888ZM81.4494 11.4885C79.9108 11.4885 78.6739 12.1602 77.9966 13.2032H77.9504V11.7888C77.9504 11.7888 77.6111 11.3464 76.7369 11.3464C75.8613 11.3464 75.524 11.7888 75.524 11.7888V23.0096H77.9504V16.7282C77.9504 14.8953 79.1633 13.8981 80.7279 13.8981C82.336 13.8981 83.4104 14.7345 83.4104 16.7734V23.0096H85.8362V16.2412C85.8369 13.4577 83.831 11.4885 81.4494 11.4885ZM99.6942 21.7566C99.6942 25.4676 96.8479 27.6014 93.7916 27.6014C92.227 27.6014 90.316 26.9517 89.031 25.3765L91.0148 23.9383C91.4789 24.588 92.5312 25.3274 93.6759 25.3274C96.1491 25.3274 97.4082 23.7264 97.4082 22.013V21.2716C96.3792 22.4057 95.2138 23.0089 93.5569 23.0089C90.6436 23.0089 88.0735 20.8286 88.0735 17.2849C88.0735 13.5972 90.8269 11.4879 93.8364 11.4879C95.3542 11.4879 96.5677 12.0666 97.3607 13.1109H97.4069V11.7888C97.4069 11.7888 97.6643 11.3322 98.5398 11.3322C99.4108 11.3322 99.6936 11.7888 99.6936 11.7888V21.7566H99.6942ZM97.4075 17.2603C97.4075 15.3106 95.8898 13.758 94.049 13.758C92.1549 13.758 90.643 15.3106 90.643 17.2377C90.643 19.1836 91.9924 20.7369 94.049 20.7369C96.0042 20.7369 97.4075 19.183 97.4075 17.2603ZM22.3423 22.9637H25.0385V18.388H29.2947C32.5512 18.388 34.5532 16.2625 34.5532 13.4202C34.5532 10.5779 32.5512 8.45247 29.2947 8.45247H22.3423V15.846H20.5977V18.388H22.3423V22.9637ZM25.0385 10.9932H29.0867C30.9931 10.9932 31.8524 12.1266 31.8524 13.4202C31.8524 14.7132 30.9931 15.846 29.0867 15.846H25.0385V10.9932Z" fill="#008338"/>
    <path d="M102.093 8.2478C102.359 8.2478 102.619 8.31562 102.87 8.45124C103.124 8.58557 103.321 8.77932 103.462 9.03249C103.603 9.28437 103.674 9.54657 103.674 9.82105C103.674 10.0904 103.604 10.3519 103.465 10.6012C103.327 10.8512 103.132 11.0456 102.881 11.1838C102.63 11.322 102.368 11.3904 102.093 11.3904C101.819 11.3904 101.557 11.322 101.306 11.1838C101.054 11.0456 100.859 10.8505 100.72 10.6012C100.58 10.3519 100.511 10.0904 100.511 9.82105C100.511 9.54657 100.581 9.28372 100.723 9.03249C100.864 8.77932 101.062 8.58622 101.316 8.45124C101.568 8.31626 101.826 8.2478 102.093 8.2478ZM102.093 8.50807C101.87 8.50807 101.653 8.56426 101.443 8.67793C101.233 8.79095 101.068 8.95305 100.95 9.16295C100.832 9.37478 100.772 9.59307 100.772 9.8217C100.772 10.0471 100.831 10.2654 100.948 10.4714C101.065 10.6794 101.228 10.8415 101.437 10.9577C101.646 11.0733 101.865 11.1314 102.094 11.1314C102.322 11.1314 102.541 11.0733 102.75 10.9577C102.96 10.8408 103.123 10.6794 103.238 10.4714C103.354 10.2654 103.413 10.0471 103.413 9.8217C103.413 9.59307 103.353 9.37478 103.236 9.16295C103.117 8.95305 102.953 8.79095 102.742 8.67793C102.53 8.56426 102.313 8.50807 102.093 8.50807ZM101.399 10.6897V8.99762H101.984C102.184 8.99762 102.328 9.01247 102.417 9.04412C102.507 9.07576 102.579 9.13001 102.632 9.20751C102.685 9.28566 102.711 9.36832 102.711 9.45551C102.711 9.57887 102.668 9.68672 102.579 9.77843C102.489 9.87014 102.372 9.92116 102.224 9.93149C102.285 9.95603 102.333 9.98639 102.37 10.0219C102.439 10.0884 102.522 10.2002 102.621 10.3571L102.828 10.6891H102.493L102.342 10.4223C102.223 10.2118 102.128 10.0813 102.056 10.0284C102.005 9.98897 101.931 9.97024 101.835 9.97024H101.674V10.6897H101.399ZM101.674 9.73774H102.008C102.167 9.73774 102.276 9.71384 102.333 9.66605C102.392 9.61955 102.42 9.55755 102.42 9.48005C102.42 9.42968 102.406 9.38512 102.379 9.34507C102.352 9.30503 102.312 9.27662 102.262 9.25659C102.213 9.23657 102.121 9.22753 101.987 9.22753H101.675V9.73774H101.674Z" fill="#02A54D"/>
    <path d="M25.0879 29.8851C25.0879 30.312 24.9397 30.6465 24.6446 30.8881C24.3489 31.1303 23.9413 31.251 23.422 31.251C22.9923 31.251 22.6368 31.1742 22.354 31.0224V30.3398C22.7076 30.5368 23.0664 30.6356 23.4285 30.6356C23.7086 30.6356 23.9296 30.5755 24.0908 30.456C24.252 30.3372 24.3333 30.1719 24.3333 29.9613C24.3333 29.8205 24.2917 29.6959 24.2072 29.588C24.1233 29.4795 23.9478 29.34 23.6794 29.1715C23.4649 29.0352 23.3063 28.9118 23.2042 28.7995C23.1015 28.6877 23.0235 28.565 22.9696 28.4326C22.9156 28.2996 22.8883 28.1517 22.8883 27.9915C22.8883 27.7313 22.9514 27.5 23.0775 27.2998C23.2029 27.0983 23.381 26.9427 23.6118 26.8323C23.8419 26.7231 24.1012 26.6682 24.3892 26.6682C24.8084 26.6682 25.1991 26.7612 25.5579 26.9479L25.2946 27.5304C24.9651 27.3722 24.6635 27.2921 24.3892 27.2921C24.1662 27.2921 23.9875 27.3515 23.8523 27.471C23.7171 27.5905 23.6501 27.7448 23.6501 27.9353C23.6501 28.0309 23.6651 28.1149 23.6963 28.1872C23.7268 28.2595 23.7743 28.3267 23.8393 28.3887C23.9036 28.452 24.0414 28.5489 24.2514 28.68C24.5692 28.8776 24.7876 29.0688 24.9085 29.2515C25.0275 29.4356 25.0879 29.6474 25.0879 29.8851Z" fill="#B2B1B1"/>
    <path d="M27.2513 31.2504C26.8808 31.2504 26.6058 31.0715 26.4264 30.7131H26.3952C26.3816 30.9113 26.3556 31.0993 26.3185 31.2775L26.0241 32.6893H25.3091L26.3465 27.8171H26.9113L26.8463 28.39H26.8743C27.1954 27.9689 27.5477 27.7571 27.9299 27.7571C28.2224 27.7571 28.4512 27.8617 28.6169 28.071C28.7833 28.2796 28.8659 28.5702 28.8659 28.9428C28.8659 29.3575 28.7944 29.745 28.6514 30.1066C28.5077 30.467 28.3134 30.7479 28.067 30.9488C27.8194 31.1496 27.5477 31.2504 27.2513 31.2504ZM27.6588 28.3422C27.4937 28.3422 27.3286 28.4229 27.1655 28.585C27.0017 28.7465 26.8678 28.9603 26.7644 29.2264C26.6611 29.4931 26.6097 29.7689 26.6097 30.0524C26.6097 30.2481 26.6572 30.3998 26.7521 30.5083C26.8476 30.6168 26.9822 30.6711 27.1557 30.6711C27.3299 30.6711 27.4924 30.5916 27.6439 30.4321C27.7947 30.2726 27.9149 30.0595 28.0027 29.7915C28.0904 29.5254 28.1346 29.2457 28.1346 28.9551C28.1346 28.5469 27.9767 28.3422 27.6588 28.3422Z" fill="#B2B1B1"/>
    <path d="M31.6057 27.7571C31.7324 27.7571 31.8429 27.7694 31.9365 27.7932L31.7799 28.4604C31.6694 28.4326 31.5647 28.4191 31.4672 28.4191C31.2092 28.4191 30.9797 28.534 30.7769 28.7626C30.5741 28.9932 30.4331 29.2935 30.3538 29.6649L30.0288 31.189H29.3047L30.0288 27.8171H30.5936L30.5286 28.443H30.5566C30.7256 28.1982 30.8959 28.0232 31.0662 27.916C31.2352 27.8094 31.4159 27.7571 31.6057 27.7571Z" fill="#B2B1B1"/>
    <path d="M33.2956 31.2505C32.8926 31.2505 32.578 31.1375 32.3518 30.9121C32.1256 30.6867 32.0132 30.3709 32.0132 29.9672C32.0132 29.5649 32.0925 29.1903 32.2511 28.8435C32.4097 28.4979 32.6248 28.2299 32.8959 28.0407C33.1669 27.8521 33.4705 27.7578 33.8059 27.7578C34.1354 27.7578 34.3915 27.8308 34.5748 27.9793C34.7575 28.1266 34.8491 28.3358 34.8491 28.6058C34.8491 28.9752 34.6788 29.2645 34.3382 29.4731C33.9976 29.6824 33.5121 29.7857 32.8822 29.7857H32.7503L32.7444 29.8807V29.9685C32.7444 30.1939 32.8023 30.3709 32.918 30.4987C33.033 30.6266 33.2053 30.6905 33.4347 30.6905C33.5816 30.6905 33.7279 30.6718 33.8735 30.6331C34.0184 30.5937 34.1907 30.5284 34.3889 30.4348V31.0051C34.1926 31.0935 34.0119 31.1575 33.8475 31.1956C33.6817 31.2311 33.4984 31.2505 33.2956 31.2505ZM33.7623 28.3055C33.566 28.3055 33.3814 28.3933 33.2079 28.567C33.0356 28.7427 32.9108 28.9733 32.8354 29.2594H32.9245C33.3086 29.2594 33.6096 29.2045 33.826 29.096C34.0431 28.9875 34.151 28.8338 34.151 28.6349C34.151 28.5309 34.1185 28.4508 34.0529 28.392C33.9885 28.3352 33.8917 28.3055 33.7623 28.3055Z" fill="#B2B1B1"/>
    <path d="M36.248 31.2505C35.9601 31.2505 35.7313 31.1471 35.5636 30.9411C35.3959 30.7351 35.312 30.4451 35.312 30.0705C35.312 29.6598 35.3835 29.2768 35.5259 28.9184C35.6682 28.5599 35.8639 28.2777 36.1135 28.0697C36.3631 27.8618 36.6374 27.7578 36.9351 27.7578C37.134 27.7578 37.3043 27.8037 37.4473 27.8967C37.5909 27.989 37.7021 28.1246 37.782 28.3003H37.8126L38.003 27.8185H38.5555L37.8314 31.1904H37.2731L37.3374 30.6537H37.3192C36.9955 31.0516 36.6387 31.2505 36.248 31.2505ZM36.5119 30.6712C36.6796 30.6712 36.8447 30.5924 37.0059 30.4354C37.1678 30.2772 37.301 30.0667 37.405 29.8025C37.509 29.539 37.5617 29.2497 37.5617 28.9365C37.5617 28.7582 37.5136 28.6135 37.4174 28.505C37.3212 28.3965 37.1957 28.3423 37.0397 28.3423C36.8662 28.3423 36.7024 28.4204 36.549 28.5767C36.3949 28.733 36.2727 28.9461 36.1804 29.2155C36.0881 29.4848 36.0426 29.7644 36.0426 30.0525C36.0426 30.2598 36.0842 30.4154 36.1668 30.5181C36.25 30.6201 36.3644 30.6712 36.5119 30.6712Z" fill="#B2B1B1"/>
    <path d="M40.5745 27.7572C40.9411 27.7572 41.2148 27.938 41.3968 28.2997H41.4215C41.4481 28.0032 41.4858 27.7488 41.5346 27.5369L41.7679 26.4468H42.4829L41.4702 31.1911H40.9054L40.9632 30.6531H40.9418C40.7617 30.8688 40.5875 31.0225 40.4205 31.1142C40.2528 31.2059 40.0753 31.2511 39.8862 31.2511C39.5937 31.2511 39.3649 31.1478 39.1985 30.9418C39.0334 30.7358 38.9502 30.4432 38.9502 30.0654C38.9502 29.6488 39.023 29.2594 39.1699 28.8977C39.3155 28.536 39.5118 28.2558 39.7575 28.0562C40.0032 27.8566 40.2762 27.7572 40.5745 27.7572ZM40.1637 30.6712C40.3314 30.6712 40.4978 30.5879 40.6629 30.4212C40.8274 30.254 40.9593 30.037 41.0581 29.7683C41.1576 29.4996 41.207 29.229 41.207 28.9539C41.207 28.7698 41.1628 28.6207 41.0737 28.5096C40.9847 28.3972 40.8495 28.341 40.6668 28.341C40.4926 28.341 40.3308 28.4198 40.1793 28.5761C40.0279 28.733 39.9076 28.9468 39.8166 29.2193C39.7269 29.4919 39.6814 29.7689 39.6814 30.0518C39.6821 30.4652 39.8426 30.6712 40.1637 30.6712Z" fill="#B2B1B1"/>
    <path d="M45.7573 28.7725L47.0827 26.7329H47.8984L45.9868 29.5165L45.6377 31.1905H44.9078L45.2731 29.5048L44.5425 26.7336H45.2848L45.7573 28.7725Z" fill="#B2B1B1"/>
    <path d="M50.6329 29.0805C50.6329 29.4913 50.5581 29.8646 50.4086 30.2004C50.2591 30.5369 50.0537 30.7946 49.7937 30.9741C49.5331 31.1543 49.2321 31.2441 48.8928 31.2441C48.5002 31.2441 48.1882 31.1272 47.9568 30.8953C47.726 30.6628 47.6104 30.3457 47.6104 29.9453C47.6104 29.541 47.6838 29.1703 47.83 28.8325C47.9756 28.4947 48.1817 28.2319 48.4449 28.0433C48.7088 27.8554 49.0137 27.7617 49.3595 27.7617C49.7586 27.7617 50.0706 27.8799 50.2948 28.115C50.5204 28.3527 50.6329 28.673 50.6329 29.0805ZM49.9048 29.0495C49.9048 28.8325 49.8548 28.6607 49.7547 28.5393C49.6546 28.4166 49.511 28.3546 49.3251 28.3546C49.1346 28.3546 48.9643 28.4276 48.8141 28.5722C48.664 28.7182 48.547 28.9152 48.4644 29.1645C48.3812 29.4131 48.3403 29.6798 48.3403 29.9621C48.3403 30.1875 48.391 30.3593 48.4917 30.48C48.5931 30.6002 48.7433 30.6596 48.9415 30.6596C49.1255 30.6596 49.2912 30.5905 49.4381 30.4523C49.5857 30.3147 49.7007 30.1203 49.782 29.8723C49.8639 29.6224 49.9048 29.3485 49.9048 29.0495Z" fill="#B2B1B1"/>
    <path d="M52.4766 27.8178L52.0814 29.6784C52.0177 29.9645 51.9865 30.1602 51.9865 30.2655C51.9865 30.5367 52.1158 30.6717 52.3765 30.6717C52.524 30.6717 52.6696 30.6142 52.8152 30.4973C52.9608 30.3811 53.0889 30.2164 53.202 30.002C53.3144 29.7876 53.4015 29.5363 53.4626 29.247L53.7668 27.8171H54.4818L53.7668 31.1903H53.1987L53.2637 30.5645H53.239C53.0713 30.8002 52.8965 30.9733 52.7138 31.0851C52.5325 31.1955 52.3355 31.251 52.1249 31.251C51.8506 31.251 51.6387 31.1735 51.4892 31.0198C51.3404 30.8648 51.2656 30.6433 51.2656 30.3553C51.2656 30.2274 51.278 30.0995 51.3027 29.9755C51.3274 29.8502 51.3514 29.7249 51.3761 29.599L51.7538 27.8178H52.4766V27.8178Z" fill="#B2B1B1"/>
    <path d="M57.0764 27.7571C57.2038 27.7571 57.3136 27.7694 57.4079 27.7932L57.2519 28.4604C57.1414 28.4326 57.0367 28.4191 56.9386 28.4191C56.6812 28.4191 56.4511 28.534 56.2483 28.7626C56.0461 28.9932 55.9051 29.2935 55.8251 29.6649L55.5001 31.189H54.7754L55.4995 27.8171H56.0637L55.9993 28.4436H56.0273C56.1963 28.1988 56.3659 28.0238 56.5362 27.9166C56.7065 27.8094 56.8866 27.7571 57.0764 27.7571Z" fill="#B2B1B1"/>
    <path d="M60.8145 31.1898L60.4609 27.4892H60.4434C60.4252 27.7288 60.3686 28.075 60.275 28.5251L59.7095 31.1898H59.0381L59.9858 26.7329H60.9777L61.3124 30.2366H61.33L63.1896 26.7329H64.2452L63.3092 31.1898H62.6131L63.1714 28.5316C63.2507 28.1531 63.3391 27.8063 63.4353 27.4892H63.4171L61.4437 31.1898H60.8145Z" fill="#B2B1B1"/>
    <path d="M65.7912 31.2505C65.3882 31.2505 65.0736 31.1375 64.8481 30.9121C64.6219 30.6867 64.5088 30.3709 64.5088 29.9672C64.5088 29.5649 64.5881 29.1903 64.7467 28.8435C64.9059 28.4979 65.1204 28.2299 65.3915 28.0407C65.6619 27.8521 65.9654 27.7578 66.3002 27.7578C66.6304 27.7578 66.8852 27.8308 67.0691 27.9793C67.2524 28.1266 67.3447 28.3358 67.3447 28.6058C67.3447 28.9752 67.1738 29.2645 66.8338 29.4731C66.4926 29.6824 66.0077 29.7857 65.3778 29.7857H65.2465L65.2407 29.8807V29.9685C65.2407 30.1939 65.2979 30.3709 65.4142 30.4987C65.5299 30.6266 65.7015 30.6905 65.9303 30.6905C66.0785 30.6905 66.2241 30.6718 66.3697 30.6331C66.5147 30.5937 66.6869 30.5284 66.8852 30.4348V31.0051C66.6889 31.0935 66.5088 31.1575 66.3444 31.1956C66.178 31.2311 65.9934 31.2505 65.7912 31.2505ZM66.2586 28.3055C66.0616 28.3055 65.8764 28.3933 65.7041 28.567C65.5312 28.7427 65.4064 28.9733 65.331 29.2594H65.4207C65.8049 29.2594 66.1065 29.2045 66.3223 29.096C66.5387 28.9875 66.6473 28.8338 66.6473 28.6349C66.6473 28.5309 66.6154 28.4508 66.5498 28.392C66.4841 28.3352 66.3866 28.3055 66.2586 28.3055Z" fill="#B2B1B1"/>
    <path d="M69.9186 30.1531C69.9186 30.5051 69.797 30.7757 69.5552 30.9656C69.3147 31.1561 68.9793 31.2504 68.5497 31.2504C68.161 31.2504 67.8321 31.1826 67.561 31.0463V30.4276C67.8743 30.6104 68.1948 30.7014 68.5191 30.7014C68.718 30.7014 68.8786 30.6607 69.0001 30.5794C69.1236 30.4986 69.1847 30.3882 69.1847 30.2474C69.1847 30.1441 69.1496 30.0556 69.0788 29.98C69.0086 29.9064 68.8643 29.8076 68.6452 29.6836C68.3891 29.5467 68.2084 29.4085 68.1038 29.267C67.9985 29.125 67.9452 28.9583 67.9452 28.7652C67.9452 28.4514 68.055 28.204 68.2734 28.0251C68.4925 27.8469 68.7889 27.7571 69.1607 27.7571C69.5611 27.7571 69.9147 27.843 70.2221 28.0128L69.9894 28.5502C69.7028 28.3958 69.4311 28.3183 69.173 28.3183C69.0235 28.3183 68.902 28.3525 68.809 28.4197C68.7148 28.4869 68.6699 28.5792 68.6699 28.7C68.6699 28.7911 68.7024 28.8731 68.7707 28.9435C68.8383 29.0152 68.9761 29.1069 69.1847 29.2199C69.3999 29.3387 69.552 29.4408 69.6417 29.5273C69.7327 29.6119 69.8009 29.7049 69.8471 29.8057C69.8945 29.9045 69.9186 30.0214 69.9186 30.1531Z" fill="#B2B1B1"/>
    <path d="M72.7475 30.1531C72.7475 30.5051 72.626 30.7757 72.3861 30.9656C72.1437 31.1561 71.8083 31.2504 71.3786 31.2504C70.9906 31.2504 70.661 31.1826 70.3906 31.0463V30.4276C70.7033 30.6104 71.0224 30.7014 71.3481 30.7014C71.547 30.7014 71.7075 30.6607 71.8304 30.5794C71.9526 30.4986 72.0137 30.3882 72.0137 30.2474C72.0137 30.1441 71.9779 30.0556 71.9077 29.98C71.8375 29.9064 71.6926 29.8076 71.4735 29.6836C71.2174 29.5467 71.0374 29.4085 70.9314 29.267C70.8261 29.125 70.7741 28.9583 70.7741 28.7652C70.7741 28.4514 70.8833 28.204 71.1017 28.0251C71.3214 27.8469 71.6172 27.7571 71.989 27.7571C72.3894 27.7571 72.7436 27.843 73.0511 28.0128L72.8177 28.5502C72.5317 28.3958 72.2594 28.3183 72.0013 28.3183C71.8525 28.3183 71.7316 28.3525 71.638 28.4197C71.545 28.4869 71.4982 28.5792 71.4982 28.7C71.4982 28.7911 71.5327 28.8731 71.599 28.9435C71.6666 29.0152 71.805 29.1069 72.0137 29.2199C72.2288 29.3387 72.3803 29.4408 72.4713 29.5273C72.561 29.6119 72.6292 29.7049 72.6767 29.8057C72.7235 29.9045 72.7475 30.0214 72.7475 30.1531Z" fill="#B2B1B1"/>
    <path d="M74.4015 31.2505C74.1129 31.2505 73.8841 31.1471 73.717 30.9411C73.5487 30.7351 73.4648 30.4451 73.4648 30.0705C73.4648 29.6598 73.5357 29.2768 73.6774 28.9184C73.8204 28.5599 74.016 28.2777 74.2656 28.0697C74.5159 27.8618 74.7895 27.7578 75.0879 27.7578C75.2868 27.7578 75.4571 27.8037 75.6001 27.8967C75.7431 27.989 75.8555 28.1246 75.9348 28.3003H75.9661L76.1565 27.8185H76.7084L75.9849 31.1904H75.4259L75.4915 30.6537H75.4733C75.1483 31.0516 74.7915 31.2505 74.4015 31.2505ZM74.6647 30.6712C74.8331 30.6712 74.9975 30.5924 75.1594 30.4354C75.3212 30.2772 75.4545 30.0667 75.5585 29.8025C75.6625 29.539 75.7145 29.2497 75.7145 28.9365C75.7145 28.7582 75.667 28.6135 75.5708 28.505C75.4746 28.3965 75.3485 28.3423 75.1932 28.3423C75.0183 28.3423 74.8545 28.4204 74.7018 28.5767C74.5484 28.733 74.4255 28.9461 74.3339 29.2155C74.2422 29.4848 74.1961 29.7644 74.1961 30.0525C74.1961 30.2598 74.237 30.4154 74.3196 30.5181C74.4028 30.6201 74.5185 30.6712 74.6647 30.6712Z" fill="#B2B1B1"/>
    <path d="M80.3232 27.8178L80.2283 28.235L79.6388 28.3357C79.6966 28.4546 79.7246 28.5928 79.7246 28.753C79.7246 29.1463 79.603 29.4576 79.3599 29.6881C79.1168 29.918 78.7905 30.0343 78.3804 30.0343C78.2738 30.0343 78.1795 30.0259 78.0976 30.0097C77.8708 30.0911 77.7583 30.1964 77.7583 30.3269C77.7583 30.4037 77.7902 30.4567 77.8545 30.4851C77.9182 30.5135 78.0118 30.5361 78.136 30.5522L78.5247 30.6007C78.8854 30.6452 79.1422 30.7344 79.2988 30.8668C79.4535 31.0011 79.5309 31.1916 79.5309 31.439C79.5309 31.8375 79.3775 32.1462 79.0681 32.3632C78.7587 32.5808 78.3206 32.69 77.7518 32.69C77.3365 32.69 77.0147 32.6131 76.7872 32.4607C76.5597 32.3083 76.4453 32.099 76.4453 31.8323C76.4453 31.623 76.5162 31.4422 76.6585 31.2898C76.8009 31.1374 77.0284 31.0082 77.3443 30.9023C77.1896 30.8112 77.1116 30.6821 77.1116 30.5154C77.1116 30.3746 77.159 30.2532 77.2546 30.1512C77.3495 30.0485 77.4996 29.9497 77.7031 29.8541C77.4268 29.6894 77.2897 29.433 77.2897 29.0856C77.2897 28.6877 77.4138 28.3655 77.6654 28.122C77.9156 27.8785 78.2471 27.7571 78.6573 27.7571C78.8211 27.7571 78.9849 27.7777 79.148 27.8178H80.3232V27.8178ZM77.8103 31.1348C77.5815 31.1716 77.4054 31.2433 77.2825 31.3511C77.1597 31.4583 77.0986 31.5927 77.0986 31.7503C77.0986 31.882 77.1551 31.9873 77.2689 32.0661C77.3826 32.1449 77.5555 32.1836 77.7895 32.1836C78.123 32.1836 78.383 32.1287 78.5715 32.0189C78.7593 31.9085 78.8536 31.7516 78.8536 31.5462C78.8536 31.4422 78.8087 31.3615 78.7158 31.3027C78.6241 31.2426 78.4616 31.202 78.2315 31.1774L77.8103 31.1348ZM78.6391 28.2356C78.5058 28.2356 78.3895 28.2757 78.2887 28.3538C78.1886 28.432 78.1119 28.5392 78.056 28.6729C78.0008 28.8085 77.9741 28.9564 77.9741 29.1172C77.9741 29.2612 78.0099 29.373 78.082 29.4511C78.1548 29.5292 78.2582 29.5693 78.3934 29.5693C78.5273 29.5693 78.6423 29.5292 78.7392 29.4498C78.8367 29.3704 78.9121 29.2619 78.9667 29.1243C79.0213 28.9855 79.0473 28.8343 79.0473 28.6696C79.046 28.3797 78.9108 28.2356 78.6391 28.2356Z" fill="#B2B1B1"/>
    <path d="M81.6609 31.2505C81.2585 31.2505 80.9439 31.1375 80.7177 30.9121C80.4915 30.6867 80.3784 30.3709 80.3784 29.9672C80.3784 29.5649 80.4584 29.1903 80.6176 28.8435C80.7756 28.4979 80.9901 28.2299 81.2611 28.0407C81.5322 27.8521 81.8357 27.7578 82.1705 27.7578C82.5 27.7578 82.7568 27.8308 82.9394 27.9793C83.1234 28.1266 83.2144 28.3358 83.2144 28.6058C83.2144 28.9752 83.0447 29.2645 82.7035 29.4731C82.3642 29.6824 81.878 29.7857 81.2481 29.7857H81.1168L81.1103 29.8807V29.9685C81.1103 30.1939 81.1682 30.3709 81.2845 30.4987C81.3996 30.6266 81.5718 30.6905 81.8013 30.6905C81.9488 30.6905 82.0951 30.6718 82.24 30.6331C82.385 30.5937 82.5572 30.5284 82.7561 30.4348V31.0051C82.5592 31.0935 82.3798 31.1575 82.214 31.1956C82.0476 31.2311 81.8643 31.2505 81.6609 31.2505ZM82.1282 28.3055C81.9313 28.3055 81.7473 28.3933 81.5738 28.567C81.4015 28.7427 81.2767 28.9733 81.2013 29.2594H81.2904C81.6752 29.2594 81.9761 29.2045 82.1926 29.096C82.409 28.9875 82.5182 28.8338 82.5182 28.6349C82.5182 28.5309 82.4851 28.4508 82.4194 28.392C82.3544 28.3352 82.2576 28.3055 82.1282 28.3055Z" fill="#B2B1B1"/>
    <path d="M83.4907 30.8972C83.4907 30.7351 83.5362 30.6027 83.6305 30.5006C83.7234 30.3999 83.8567 30.3495 84.0302 30.3495C84.1472 30.3495 84.2402 30.3824 84.3104 30.4483C84.3793 30.5135 84.4137 30.6085 84.4137 30.7331C84.4137 30.8939 84.3663 31.0237 84.2701 31.1226C84.1739 31.222 84.0471 31.273 83.8924 31.273C83.7657 31.273 83.6662 31.2388 83.596 31.1703C83.5258 31.1019 83.4907 31.0115 83.4907 30.8972ZM84.4196 29.8361H83.8801L84.3962 26.7322H85.2301L84.4196 29.8361Z" fill="#B2B1B1"/>
</svg>
