<?xml version="1.0" encoding="utf-8"?>
<!-- Generator: Adobe Illustrator 19.2.1, SVG Export Plug-In . SVG Version: 6.00 Build 0)  -->
<svg version="1.1" id="Layer_1" xmlns="http://www.w3.org/2000/svg" xmlns:xlink="http://www.w3.org/1999/xlink" x="0px" y="0px"
	 viewBox="0 0 739.5 182" style="enable-background:new 0 0 739.5 182;" xml:space="preserve">
<style type="text/css">
	.st0{fill:#1A6DB6;}
	.st1{clip-path:url(#SVGID_4_);fill:#126CB5;}
	.st2{fill:#008338;}
	.st3{clip-path:url(#SVGID_6_);fill:#008338;}
	.st4{fill:#B2B1B1;}
</style>
<g>
	<g>
		<path id="SVGID_1_" class="st0" d="M103.5,6.7c-9.1,0-13.8,3.4-13.8,3.4l0,0l0,0v131.4c0,0-8.7,8-27,8
			c-20.5,0-31.7-12.6-31.7-21.4v-118l0,0c0,0-4.8-3.4-14.1-3.4S2.8,10.1,2.8,10.1l0,0v117.8c0,18.7,26.2,31.4,34.4,34.7
			c9.4,3.9,29.7,3.5,40,2.5c18.6-1.7,40.1-12.7,40.1-12.7V10.1l0,0C117.3,10.1,112.6,6.7,103.5,6.7"/>
	</g>
	<g>
		<defs>
			<path id="SVGID_2_" d="M103.5,6.7c-9.1,0-13.8,3.4-13.8,3.4l0,0l0,0v131.4c0,0-8.7,8-27,8c-20.5,0-31.7-12.6-31.7-21.4v-118l0,0
				c0,0-4.8-3.4-14.1-3.4S2.8,10.1,2.8,10.1l0,0v117.8c0,18.7,26.2,31.4,34.4,34.7c9.4,3.9,29.7,3.5,40,2.5
				c18.6-1.7,40.1-12.7,40.1-12.7V10.1l0,0C117.3,10.1,112.6,6.7,103.5,6.7"/>
		</defs>
		<clipPath id="SVGID_4_">
			<use xlink:href="#SVGID_2_"  style="overflow:visible;"/>
		</clipPath>
		<rect x="2.8" y="6.7" class="st1" width="114.4" height="159.7"/>
	</g>
</g>
<g>
	<g>
		<path id="SVGID_3_" class="st2" d="M303.1,28.6L297,45.7c-1.7-1.3-4.8-2.3-6.5-2.3c-6.3,0-11.9,4.8-11.9,12.1v53.1h-17.2V28.4
			c0,0,2.1-3.2,8.3-3.2c6.2,0,8,3.2,8,3.2v8.8h0.3c2.8-6.6,8.8-10.9,15.8-10.9C297.5,26.1,300.8,27.1,303.1,28.6 M312.9,11.9
			c0-5.3,4.3-9.6,9.6-9.6c5.3,0,9.6,4.3,9.6,9.6s-4.3,9.6-9.6,9.6C317.2,21.5,312.9,17.2,312.9,11.9 M331.1,28.3L331.1,28.3v80.2
			h-17.2V28.3c0,0,2.2-3.2,8.8-3.2C329.2,25.1,331.1,28.3,331.1,28.3 M395.4,26.1c-10.9,0-19.7,4.8-24.5,12.3h-0.3V28.3
			c0,0-2.4-3.2-8.6-3.2s-8.6,3.2-8.6,3.2v80.2h17.2V63.6c0-13.1,8.6-20.2,19.7-20.2c11.4,0,19.1,6,19.1,20.6v44.6h17.3V60.2
			C426.6,40.2,412.3,26.1,395.4,26.1 M441.2,44.5h9.8v34.8c0,16.8,8.3,22.9,26,31.3l7.6-13.6l-9.3-5.3c-5.1-3-7.1-7-7.1-15.6V44.4
			H482V28.1h-13.8v-26L451,6.9v21.2h-9.8V44.5z M496.9,11.9c0-5.3,4.3-9.6,9.6-9.6s9.6,4.3,9.6,9.6s-4.3,9.6-9.6,9.6
			S496.9,17.2,496.9,11.9 M515.1,28.3L515.1,28.3v80.2h-17.3V28.3l0,0c0,0,2.2-3.2,8.8-3.2C513.2,25.1,515.1,28.3,515.1,28.3
			 M579.4,26.1c-10.9,0-19.7,4.8-24.5,12.3h-0.3V28.3c0,0-2.4-3.2-8.6-3.2c-6.2,0-8.6,3.2-8.6,3.2v80.2h17.2V63.6
			c0-13.1,8.6-20.2,19.7-20.2c11.4,0,19.1,6,19.1,20.6v44.6h17.2V60.2C610.6,40.2,596.4,26.1,579.4,26.1 M709.1,99.6
			c0,26.5-20.2,41.8-41.9,41.8c-11.1,0-24.7-4.7-33.8-15.9l14.1-10.3c3.3,4.6,10.8,9.9,18.9,9.9c17.6,0,26.5-11.4,26.5-23.7v-5.3
			c-7.3,8.1-15.6,12.4-27.4,12.4c-20.7,0-39-15.6-39-40.9c0-26.4,19.6-41.5,40.9-41.5c10.8,0,19.4,4.1,25,11.6h0.3v-9.5
			c0,0,1.8-3.3,8-3.3s8.2,3.3,8.2,3.3v71.4H709.1z M692.8,67.4c0-13.9-10.8-25-23.9-25c-13.5,0-24.2,11.1-24.2,24.9
			c0,13.9,9.6,25,24.2,25C682.9,92.3,692.8,81.2,692.8,67.4 M159.5,108.2h19.2V75.5h30.2c23.1,0,37.4-15.2,37.4-35.5
			S232.1,4.5,208.9,4.5h-49.4v52.9h-12.4v18.2h12.4V108.2z M178.6,22.6h28.8c13.5,0,19.7,8.1,19.7,17.4c0,9.2-6.1,17.3-19.7,17.3
			h-28.8V22.6z"/>
	</g>
	<g>
		<defs>
			<path id="SVGID_5_" d="M303.1,28.6L297,45.7c-1.7-1.3-4.8-2.3-6.5-2.3c-6.3,0-11.9,4.8-11.9,12.1v53.1h-17.2V28.4
				c0,0,2.1-3.2,8.3-3.2c6.2,0,8,3.2,8,3.2v8.8h0.3c2.8-6.6,8.8-10.9,15.8-10.9C297.5,26.1,300.8,27.1,303.1,28.6 M312.9,11.9
				c0-5.3,4.3-9.6,9.6-9.6c5.3,0,9.6,4.3,9.6,9.6s-4.3,9.6-9.6,9.6C317.2,21.5,312.9,17.2,312.9,11.9 M331.1,28.3L331.1,28.3v80.2
				h-17.2V28.3c0,0,2.2-3.2,8.8-3.2C329.2,25.1,331.1,28.3,331.1,28.3 M395.4,26.1c-10.9,0-19.7,4.8-24.5,12.3h-0.3V28.3
				c0,0-2.4-3.2-8.6-3.2s-8.6,3.2-8.6,3.2v80.2h17.2V63.6c0-13.1,8.6-20.2,19.7-20.2c11.4,0,19.1,6,19.1,20.6v44.6h17.3V60.2
				C426.6,40.2,412.3,26.1,395.4,26.1 M441.2,44.5h9.8v34.8c0,16.8,8.3,22.9,26,31.3l7.6-13.6l-9.3-5.3c-5.1-3-7.1-7-7.1-15.6V44.4
				H482V28.1h-13.8v-26L451,6.9v21.2h-9.8V44.5z M496.9,11.9c0-5.3,4.3-9.6,9.6-9.6s9.6,4.3,9.6,9.6s-4.3,9.6-9.6,9.6
				S496.9,17.2,496.9,11.9 M515.1,28.3L515.1,28.3v80.2h-17.3V28.3l0,0c0,0,2.2-3.2,8.8-3.2C513.2,25.1,515.1,28.3,515.1,28.3
				 M579.4,26.1c-10.9,0-19.7,4.8-24.5,12.3h-0.3V28.3c0,0-2.4-3.2-8.6-3.2c-6.2,0-8.6,3.2-8.6,3.2v80.2h17.2V63.6
				c0-13.1,8.6-20.2,19.7-20.2c11.4,0,19.1,6,19.1,20.6v44.6h17.2V60.2C610.6,40.2,596.4,26.1,579.4,26.1 M709.1,99.6
				c0,26.5-20.2,41.8-41.9,41.8c-11.1,0-24.7-4.7-33.8-15.9l14.1-10.3c3.3,4.6,10.8,9.9,18.9,9.9c17.6,0,26.5-11.4,26.5-23.7v-5.3
				c-7.3,8.1-15.6,12.4-27.4,12.4c-20.7,0-39-15.6-39-40.9c0-26.4,19.6-41.5,40.9-41.5c10.8,0,19.4,4.1,25,11.6h0.3v-9.5
				c0,0,1.8-3.3,8-3.3s8.2,3.3,8.2,3.3v71.4H709.1z M692.8,67.4c0-13.9-10.8-25-23.9-25c-13.5,0-24.2,11.1-24.2,24.9
				c0,13.9,9.6,25,24.2,25C682.9,92.3,692.8,81.2,692.8,67.4 M159.5,108.2h19.2V75.5h30.2c23.1,0,37.4-15.2,37.4-35.5
				S232.1,4.5,208.9,4.5h-49.4v52.9h-12.4v18.2h12.4V108.2z M178.6,22.6h28.8c13.5,0,19.7,8.1,19.7,17.4c0,9.2-6.1,17.3-19.7,17.3
				h-28.8V22.6z"/>
		</defs>
		<clipPath id="SVGID_6_">
			<use xlink:href="#SVGID_5_"  style="overflow:visible;"/>
		</clipPath>
		<rect x="147.1" y="2.3" class="st3" width="562" height="139.1"/>
	</g>
</g>
<g>
	<path class="st2" d="M726.1,3c1.9,0,3.7,0.5,5.5,1.5s3.2,2.3,4.2,4.2c1,1.8,1.5,3.7,1.5,5.6c0,1.9-0.5,3.8-1.5,5.6
		s-2.4,3.2-4.2,4.2s-3.6,1.5-5.6,1.5c-1.9,0-3.8-0.5-5.6-1.5s-3.2-2.4-4.2-4.2s-1.5-3.7-1.5-5.6c0-2,0.5-3.8,1.5-5.6
		s2.4-3.2,4.2-4.2C722.4,3.5,724.2,3,726.1,3z M726.1,4.8c-1.6,0-3.1,0.4-4.6,1.2s-2.7,2-3.5,3.5s-1.3,3.1-1.3,4.7
		c0,1.6,0.4,3.2,1.2,4.6c0.8,1.5,2,2.6,3.5,3.5c1.5,0.8,3,1.2,4.7,1.2c1.6,0,3.2-0.4,4.7-1.2s2.6-2,3.5-3.5c0.8-1.5,1.2-3,1.2-4.6
		s-0.4-3.2-1.3-4.7c-0.8-1.5-2-2.7-3.5-3.5C729.2,5.2,727.7,4.8,726.1,4.8z M721.2,20.4V8.3h4.2c1.4,0,2.4,0.1,3.1,0.3
		c0.6,0.2,1.1,0.6,1.5,1.2c0.4,0.6,0.6,1.1,0.6,1.8c0,0.9-0.3,1.7-0.9,2.3c-0.6,0.7-1.5,1-2.5,1.1c0.4,0.2,0.8,0.4,1,0.6
		c0.5,0.5,1.1,1.3,1.8,2.4l1.5,2.4h-2.4l-1.1-1.9c-0.8-1.5-1.5-2.4-2-2.8c-0.4-0.3-0.9-0.4-1.6-0.4h-1.2v5.1L721.2,20.4L721.2,20.4z
		 M723.2,13.6h2.4c1.1,0,1.9-0.2,2.3-0.5c0.4-0.3,0.6-0.8,0.6-1.3c0-0.4-0.1-0.7-0.3-1s-0.5-0.5-0.8-0.6s-1-0.2-2-0.2h-2.2V13.6z"/>
</g>
<g>
	<path class="st4" d="M179,157.7c0,3.1-1.1,5.4-3.2,7.2c-2.1,1.7-5,2.6-8.7,2.6c-3.1,0-5.6-0.5-7.6-1.6V161c2.5,1.4,5.1,2.1,7.6,2.1
		c2,0,3.6-0.4,4.7-1.3c1.1-0.9,1.7-2,1.7-3.5c0-1-0.3-1.9-0.9-2.7c-0.6-0.8-1.8-1.8-3.8-3c-1.5-1-2.7-1.9-3.4-2.7
		c-0.7-0.8-1.3-1.7-1.7-2.6c-0.4-1-0.6-2-0.6-3.2c0-1.9,0.4-3.5,1.3-4.9c0.9-1.4,2.2-2.6,3.8-3.3c1.6-0.8,3.5-1.2,5.5-1.2
		c3,0,5.7,0.7,8.3,2l-1.9,4.2c-2.3-1.1-4.5-1.7-6.4-1.7c-1.6,0-2.9,0.4-3.8,1.3c-1,0.9-1.4,2-1.4,3.3c0,0.7,0.1,1.3,0.3,1.8
		s0.6,1,1,1.4c0.5,0.4,1.4,1.1,2.9,2.1c2.3,1.4,3.8,2.8,4.7,4.1C178.5,154.5,179,156,179,157.7z"/>
	<path class="st4" d="M194.3,167.5c-2.6,0-4.6-1.3-5.9-3.8h-0.2c-0.1,1.4-0.3,2.8-0.5,4l-2.1,10.1h-5.1l7.4-34.8h4l-0.4,4h0.2
		c2.3-3,4.8-4.5,7.5-4.5c2.1,0,3.7,0.7,4.9,2.2s1.8,3.6,1.8,6.2c0,3-0.5,5.7-1.5,8.3c-1,2.6-2.4,4.6-4.2,6
		C198.4,166.7,196.4,167.5,194.3,167.5z M197.2,146.7c-1.2,0-2.3,0.6-3.5,1.7c-1.2,1.2-2.1,2.7-2.8,4.6s-1.1,3.9-1.1,5.9
		c0,1.4,0.3,2.5,1,3.3s1.6,1.2,2.9,1.2c1.2,0,2.4-0.6,3.5-1.7s1.9-2.7,2.6-4.6c0.6-1.9,0.9-3.9,0.9-6
		C200.6,148.1,199.5,146.7,197.2,146.7z"/>
	<path class="st4" d="M225.3,142.5c0.9,0,1.7,0.1,2.4,0.3l-1.1,4.8c-0.8-0.2-1.5-0.3-2.2-0.3c-1.8,0-3.5,0.8-4.9,2.5s-2.4,3.8-3,6.5
		l-2.3,10.9h-5.1l5.1-24.1h4l-0.5,4.5h0.2c1.2-1.7,2.4-3,3.6-3.8C222.6,142.9,223.9,142.5,225.3,142.5z"/>
	<path class="st4" d="M237.3,167.5c-2.9,0-5.1-0.8-6.7-2.4c-1.6-1.6-2.4-3.9-2.4-6.8s0.6-5.6,1.7-8c1.1-2.5,2.7-4.4,4.6-5.7
		c1.9-1.4,4.1-2,6.5-2c2.3,0,4.2,0.5,5.5,1.6s2,2.5,2,4.5c0,2.6-1.2,4.7-3.6,6.2s-5.9,2.2-10.3,2.2h-0.9v0.7v0.6
		c0,1.6,0.4,2.9,1.2,3.8c0.8,0.9,2,1.4,3.7,1.4c1,0,2.1-0.1,3.1-0.4s2.3-0.7,3.7-1.4v4.1c-1.4,0.6-2.7,1.1-3.8,1.4
		C240,167.3,238.7,167.5,237.3,167.5z M240.6,146.4c-1.4,0-2.7,0.6-3.9,1.9c-1.2,1.3-2.1,2.9-2.6,4.9h0.6c2.7,0,4.9-0.4,6.4-1.2
		c1.5-0.8,2.3-1.9,2.3-3.3c0-0.7-0.2-1.3-0.7-1.7C242.2,146.6,241.5,146.4,240.6,146.4z"/>
	<path class="st4" d="M258.3,167.5c-2,0-3.7-0.7-4.9-2.2c-1.2-1.5-1.8-3.6-1.8-6.2c0-2.9,0.5-5.7,1.5-8.2c1-2.6,2.4-4.6,4.2-6.1
		c1.8-1.5,3.7-2.2,5.8-2.2c1.4,0,2.6,0.3,3.6,1s1.8,1.6,2.4,2.9h0.2l1.4-3.4h3.9l-5.1,23.9h-4l0.5-3.8h-0.1
		C263.6,166,261,167.5,258.3,167.5z M260.1,163.3c1.2,0,2.4-0.6,3.5-1.7s2.1-2.6,2.8-4.5c0.7-1.9,1.1-4,1.1-6.2c0-1.3-0.3-2.3-1-3.1
		c-0.7-0.8-1.6-1.2-2.7-1.2c-1.2,0-2.4,0.6-3.5,1.7s-2,2.6-2.6,4.6c-0.7,1.9-1,3.9-1,6c0,1.5,0.3,2.6,0.9,3.3
		C258.3,163,259.1,163.3,260.1,163.3z"/>
	<path class="st4" d="M289,142.5c2.6,0,4.5,1.3,5.8,3.9h0.2c0.2-2.1,0.5-3.9,0.8-5.5l1.7-7.8h5.1l-7.2,33.9h-4l0.4-3.8h-0.2
		c-1.3,1.5-2.5,2.6-3.7,3.3c-1.2,0.7-2.5,1-3.8,1c-2.1,0-3.7-0.7-4.9-2.2c-1.2-1.5-1.8-3.6-1.8-6.3c0-3,0.5-5.8,1.6-8.4
		c1-2.6,2.4-4.6,4.2-6C284.9,143.2,286.9,142.5,289,142.5z M286.1,163.3c1.2,0,2.4-0.6,3.5-1.8c1.2-1.2,2.1-2.7,2.8-4.7
		c0.7-1.9,1.1-3.9,1.1-5.8c0-1.3-0.3-2.4-0.9-3.2c-0.6-0.8-1.6-1.2-2.9-1.2c-1.2,0-2.4,0.6-3.5,1.7s-1.9,2.7-2.6,4.6
		c-0.6,1.9-1,3.9-1,6C282.7,161.9,283.8,163.3,286.1,163.3z"/>
	<path class="st4" d="M325.8,149.7l9.4-14.6h5.8l-13.5,20l-2.5,12h-5.2l2.6-12.1l-5.2-19.8h5.3L325.8,149.7z"/>
	<path class="st4" d="M360.5,151.9c0,2.9-0.5,5.6-1.6,8s-2.5,4.3-4.4,5.5c-1.9,1.3-4,1.9-6.4,1.9c-2.8,0-5-0.8-6.6-2.5
		s-2.5-3.9-2.5-6.8s0.5-5.5,1.6-8c1-2.4,2.5-4.3,4.4-5.6c1.9-1.3,4-2,6.5-2c2.8,0,5.1,0.8,6.6,2.5
		C359.7,146.7,360.5,149,360.5,151.9z M355.3,151.7c0-1.6-0.4-2.8-1.1-3.7c-0.7-0.9-1.7-1.3-3.1-1.3s-2.6,0.5-3.6,1.6
		c-1.1,1-1.9,2.5-2.5,4.2c-0.6,1.8-0.9,3.7-0.9,5.7c0,1.6,0.4,2.8,1.1,3.7c0.7,0.9,1.8,1.3,3.2,1.3c1.3,0,2.5-0.5,3.5-1.5
		s1.9-2.4,2.4-4.2C355,155.8,355.3,153.9,355.3,151.7z"/>
	<path class="st4" d="M373.6,142.9l-2.8,13.3c-0.5,2.1-0.7,3.5-0.7,4.2c0,1.9,0.9,2.9,2.8,2.9c1,0,2.1-0.4,3.1-1.2
		c1-0.8,1.9-2,2.7-3.5c0.8-1.5,1.4-3.3,1.9-5.4l2.2-10.2h5.1l-5.1,24.1h-4l0.5-4.5h-0.2c-1.2,1.7-2.4,2.9-3.7,3.7
		c-1.3,0.8-2.7,1.2-4.2,1.2c-1.9,0-3.5-0.6-4.5-1.7c-1.1-1.1-1.6-2.7-1.6-4.8c0-0.9,0.1-1.8,0.3-2.7c0.2-0.9,0.3-1.8,0.5-2.7
		l2.7-12.7L373.6,142.9L373.6,142.9z"/>
	<path class="st4" d="M406.3,142.5c0.9,0,1.7,0.1,2.4,0.3l-1.1,4.8c-0.8-0.2-1.5-0.3-2.2-0.3c-1.8,0-3.5,0.8-4.9,2.5
		c-1.4,1.6-2.4,3.8-3,6.5l-2.3,10.9h-5.1l5.1-24.1h4l-0.5,4.5h0.2c1.2-1.7,2.4-3,3.6-3.8C403.6,142.9,404.9,142.5,406.3,142.5z"/>
	<path class="st4" d="M432.8,167l-2.5-26.5h-0.1c-0.1,1.7-0.5,4.2-1.2,7.4l-4,19.1h-4.8l6.7-31.9h7l2.4,25.1h0.1l13.2-25.1h7.5
		l-6.6,31.9h-4.9l4-19c0.6-2.7,1.2-5.2,1.9-7.5h-0.1l-14,26.5H432.8z"/>
	<path class="st4" d="M468.2,167.5c-2.9,0-5.1-0.8-6.7-2.4s-2.4-3.9-2.4-6.8s0.6-5.6,1.7-8c1.1-2.5,2.7-4.4,4.6-5.7
		c1.9-1.4,4.1-2,6.5-2c2.3,0,4.2,0.5,5.5,1.6s2,2.5,2,4.5c0,2.6-1.2,4.7-3.6,6.2s-5.9,2.2-10.3,2.2h-0.9v0.7v0.6
		c0,1.6,0.4,2.9,1.2,3.8c0.8,0.9,2,1.4,3.7,1.4c1,0,2.1-0.1,3.1-0.4s2.3-0.7,3.7-1.4v4.1c-1.4,0.6-2.7,1.1-3.8,1.4
		C470.9,167.3,469.6,167.5,468.2,167.5z M471.5,146.4c-1.4,0-2.7,0.6-3.9,1.9c-1.2,1.3-2.1,2.9-2.6,4.9h0.6c2.7,0,4.9-0.4,6.4-1.2
		c1.5-0.8,2.3-1.9,2.3-3.3c0-0.7-0.2-1.3-0.7-1.7C473.1,146.6,472.4,146.4,471.5,146.4z"/>
	<path class="st4" d="M497.5,159.6c0,2.5-0.9,4.5-2.6,5.8c-1.7,1.4-4.1,2-7.2,2c-2.8,0-5.1-0.5-7-1.5v-4.4c2.2,1.3,4.5,2,6.8,2
		c1.4,0,2.6-0.3,3.4-0.9c0.9-0.6,1.3-1.4,1.3-2.4c0-0.7-0.3-1.4-0.8-1.9s-1.5-1.2-3.1-2.1c-1.8-1-3.1-2-3.8-3
		c-0.7-1-1.1-2.2-1.1-3.6c0-2.3,0.8-4,2.3-5.3c1.6-1.3,3.7-1.9,6.3-1.9c2.8,0,5.4,0.6,7.5,1.8l-1.7,3.8c-2-1.1-4-1.7-5.8-1.7
		c-1.1,0-1.9,0.2-2.6,0.7c-0.7,0.5-1,1.1-1,2c0,0.7,0.2,1.2,0.7,1.7s1.5,1.2,2.9,2c1.5,0.9,2.6,1.6,3.2,2.2c0.6,0.6,1.1,1.3,1.5,2
		C497.3,157.8,497.5,158.7,497.5,159.6z"/>
	<path class="st4" d="M517.6,159.6c0,2.5-0.9,4.5-2.6,5.8c-1.7,1.4-4.1,2-7.2,2c-2.8,0-5.1-0.5-7-1.5v-4.4c2.2,1.3,4.5,2,6.8,2
		c1.4,0,2.6-0.3,3.4-0.9c0.9-0.6,1.3-1.4,1.3-2.4c0-0.7-0.3-1.4-0.8-1.9s-1.5-1.2-3.1-2.1c-1.8-1-3.1-2-3.8-3s-1.1-2.2-1.1-3.6
		c0-2.3,0.8-4,2.3-5.3c1.6-1.3,3.7-1.9,6.3-1.9c2.8,0,5.4,0.6,7.5,1.8l-1.7,3.8c-2-1.1-4-1.7-5.8-1.7c-1.1,0-1.9,0.2-2.6,0.7
		c-0.7,0.5-1,1.1-1,2c0,0.7,0.2,1.2,0.7,1.7s1.5,1.2,2.9,2c1.5,0.9,2.6,1.6,3.2,2.2c0.6,0.6,1.1,1.3,1.5,2
		C517.4,157.8,517.6,158.7,517.6,159.6z"/>
	<path class="st4" d="M529.4,167.5c-2.1,0-3.7-0.7-4.9-2.2s-1.8-3.6-1.8-6.2c0-2.9,0.5-5.7,1.5-8.2c1-2.6,2.4-4.6,4.2-6.1
		s3.7-2.2,5.8-2.2c1.4,0,2.6,0.3,3.6,1s1.8,1.6,2.4,2.9h0.2l1.4-3.4h3.9l-5.1,24.1h-4l0.5-3.8H537
		C534.7,166,532.1,167.5,529.4,167.5z M531.2,163.3c1.2,0,2.4-0.6,3.5-1.7s2.1-2.6,2.8-4.5s1.1-4,1.1-6.2c0-1.3-0.3-2.3-1-3.1
		c-0.7-0.8-1.6-1.2-2.7-1.2c-1.2,0-2.4,0.6-3.5,1.7s-2,2.6-2.6,4.6s-1,3.9-1,6c0,1.5,0.3,2.6,0.9,3.3
		C529.4,163,530.2,163.3,531.2,163.3z"/>
	<path class="st4" d="M571.4,142.9l-0.7,3l-4.2,0.7c0.4,0.8,0.6,1.8,0.6,3c0,2.8-0.9,5-2.6,6.7c-1.7,1.6-4,2.5-7,2.5
		c-0.8,0-1.4-0.1-2-0.2c-1.6,0.6-2.4,1.3-2.4,2.3c0,0.6,0.2,0.9,0.7,1.1s1.1,0.4,2,0.5l2.8,0.3c2.6,0.3,4.4,1,5.5,1.9
		c1.1,1,1.7,2.3,1.7,4.1c0,2.8-1.1,5.1-3.3,6.6s-5.3,2.3-9.4,2.3c-3,0-5.2-0.5-6.9-1.6c-1.6-1.1-2.4-2.6-2.4-4.5
		c0-1.5,0.5-2.8,1.5-3.9s2.6-2,4.9-2.8c-1.1-0.7-1.7-1.6-1.7-2.8c0-1,0.3-1.9,1-2.6s1.7-1.4,3.2-2.1c-2-1.2-2.9-3-2.9-5.5
		c0-2.8,0.9-5.1,2.7-6.9c1.8-1.7,4.1-2.6,7.1-2.6c1.2,0,2.3,0.1,3.5,0.4h8.3V142.9z M553.6,166.6c-1.6,0.3-2.9,0.8-3.8,1.5
		c-0.9,0.8-1.3,1.7-1.3,2.9c0,0.9,0.4,1.7,1.2,2.3c0.8,0.6,2,0.8,3.7,0.8c2.4,0,4.2-0.4,5.6-1.2c1.3-0.8,2-1.9,2-3.4
		c0-0.7-0.3-1.3-1-1.7c-0.7-0.4-1.8-0.7-3.4-0.9L553.6,166.6z M559.5,145.9c-0.9,0-1.8,0.3-2.5,0.8c-0.7,0.6-1.3,1.3-1.7,2.3
		s-0.6,2-0.6,3.2c0,1,0.3,1.8,0.8,2.4s1.3,0.8,2.2,0.8s1.8-0.3,2.5-0.9s1.2-1.3,1.6-2.3c0.4-1,0.6-2.1,0.6-3.2
		C562.4,146.9,561.4,145.9,559.5,145.9z"/>
	<path class="st4" d="M581,167.5c-2.9,0-5.1-0.8-6.7-2.4c-1.6-1.6-2.4-3.9-2.4-6.8s0.6-5.6,1.7-8c1.1-2.5,2.7-4.4,4.6-5.7
		c1.9-1.4,4.1-2,6.5-2c2.3,0,4.2,0.5,5.5,1.6s2,2.5,2,4.5c0,2.6-1.2,4.7-3.6,6.2c-2.4,1.5-5.9,2.2-10.3,2.2h-0.9v0.7v0.6
		c0,1.6,0.4,2.9,1.2,3.8s2,1.4,3.7,1.4c1,0,2.1-0.1,3.1-0.4s2.3-0.7,3.7-1.4v4.1c-1.4,0.6-2.7,1.1-3.8,1.4
		C583.7,167.3,582.4,167.5,581,167.5z M584.3,146.4c-1.4,0-2.7,0.6-3.9,1.9s-2.1,2.9-2.6,4.9h0.6c2.7,0,4.9-0.4,6.4-1.2
		c1.5-0.8,2.3-1.9,2.3-3.3c0-0.7-0.2-1.3-0.7-1.7C585.9,146.6,585.2,146.4,584.3,146.4z"/>
	<path class="st4" d="M593.9,164.9c0-1.2,0.3-2.1,1-2.8c0.7-0.7,1.6-1.1,2.8-1.1c0.8,0,1.5,0.2,2,0.7s0.7,1.2,0.7,2
		c0,1.1-0.3,2.1-1,2.8c-0.7,0.7-1.6,1.1-2.7,1.1c-0.9,0-1.6-0.2-2.1-0.7C594.2,166.4,593.9,165.8,593.9,164.9z M600.6,157.4h-3.8
		l3.7-22.2h5.9L600.6,157.4z"/>
</g>
</svg>
