<svg width="24" height="24" viewBox="0 0 24 24" fill="none" xmlns="http://www.w3.org/2000/svg">
<path fill-rule="evenodd" clip-rule="evenodd" d="M22.8427 22.8423C22.0616 23.6233 20.7953 23.6233 20.0142 22.8423L1.15805 3.98612C0.377003 3.20507 0.377004 1.93874 1.15805 1.15769C1.9391 0.376639 3.20543 0.376638 3.98648 1.15769L22.8427 20.0139C23.6237 20.7949 23.6237 22.0612 22.8427 22.8423Z" fill="#333333"/>
<path fill-rule="evenodd" clip-rule="evenodd" d="M22.8427 1.15769C23.6237 1.93873 23.6237 3.20506 22.8427 3.98611L3.98648 22.8423C3.20543 23.6233 1.9391 23.6233 1.15805 22.8423C0.377005 22.0612 0.377004 20.7949 1.15805 20.0139L20.0142 1.15769C20.7953 0.376637 22.0616 0.376637 22.8427 1.15769Z" fill="#333333"/>
</svg>
