<svg width="30" height="30" viewBox="0 0 30 30" fill="none" xmlns="http://www.w3.org/2000/svg">
<path d="M0 2C0 0.895432 0.895431 0 2 0H5.89473C6.9993 0 7.89474 0.895431 7.89474 2V5.89473C7.89474 6.9993 6.99931 7.89474 5.89474 7.89474H2C0.895432 7.89474 0 6.99931 0 5.89474V2Z" fill="#333333"/>
<path d="M11.0526 2C11.0526 0.895432 11.9481 0 13.0526 0H16.9474C18.0519 0 18.9474 0.895431 18.9474 2V5.89473C18.9474 6.9993 18.0519 7.89474 16.9474 7.89474H13.0526C11.9481 7.89474 11.0526 6.99931 11.0526 5.89474V2Z" fill="#333333"/>
<path d="M22.1053 2C22.1053 0.895432 23.0007 0 24.1053 0H28C29.1046 0 30 0.895431 30 2V5.89473C30 6.9993 29.1046 7.89474 28 7.89474H24.1053C23.0007 7.89474 22.1053 6.99931 22.1053 5.89474V2Z" fill="#333333"/>
<path d="M0 13.0526C0 11.9481 0.895431 11.0526 2 11.0526H5.89473C6.9993 11.0526 7.89474 11.9481 7.89474 13.0526V16.9474C7.89474 18.0519 6.99931 18.9474 5.89474 18.9474H2C0.895432 18.9474 0 18.0519 0 16.9474V13.0526Z" fill="#333333"/>
<path d="M11.0526 13.0526C11.0526 11.9481 11.9481 11.0526 13.0526 11.0526H16.9474C18.0519 11.0526 18.9474 11.9481 18.9474 13.0526V16.9474C18.9474 18.0519 18.0519 18.9474 16.9474 18.9474H13.0526C11.9481 18.9474 11.0526 18.0519 11.0526 16.9474V13.0526Z" fill="#333333"/>
<path d="M22.1053 13.0526C22.1053 11.9481 23.0007 11.0526 24.1053 11.0526H28C29.1046 11.0526 30 11.9481 30 13.0526V16.9474C30 18.0519 29.1046 18.9474 28 18.9474H24.1053C23.0007 18.9474 22.1053 18.0519 22.1053 16.9474V13.0526Z" fill="#333333"/>
<path d="M0 24.1053C0 23.0007 0.895431 22.1053 2 22.1053H5.89473C6.9993 22.1053 7.89474 23.0007 7.89474 24.1053V28C7.89474 29.1046 6.99931 30 5.89474 30H2C0.895432 30 0 29.1046 0 28V24.1053Z" fill="#333333"/>
<path d="M11.0526 24.1053C11.0526 23.0007 11.9481 22.1053 13.0526 22.1053H16.9474C18.0519 22.1053 18.9474 23.0007 18.9474 24.1053V28C18.9474 29.1046 18.0519 30 16.9474 30H13.0526C11.9481 30 11.0526 29.1046 11.0526 28V24.1053Z" fill="#333333"/>
<path d="M22.1053 24.1053C22.1053 23.0007 23.0007 22.1053 24.1053 22.1053H28C29.1046 22.1053 30 23.0007 30 24.1053V28C30 29.1046 29.1046 30 28 30H24.1053C23.0007 30 22.1053 29.1046 22.1053 28V24.1053Z" fill="#333333"/>
</svg>
