<svg width="29" height="29" viewBox="0 0 29 29" fill="none" xmlns="http://www.w3.org/2000/svg">
<path fill-rule="evenodd" clip-rule="evenodd" d="M10.7115 2.09062C10.5625 2.3199 10.5512 2.62798 10.6063 2.84842C10.6187 2.89799 10.625 2.9489 10.625 3V4.375H18.375V3C18.375 2.33842 18.1732 2.01269 18.0047 1.85087C17.8203 1.67386 17.6057 1.625 17.5 1.625H12C11.1453 1.625 10.8351 1.90051 10.7115 2.09062ZM19.625 4.375V3C19.625 2.06158 19.3268 1.38731 18.8703 0.949133C18.4297 0.526143 17.8943 0.375 17.5 0.375H12C10.8547 0.375 10.0816 0.766157 9.66347 1.40938C9.29404 1.97775 9.28218 2.6239 9.375 3.06999V4.375H1C0.654822 4.375 0.375 4.65482 0.375 5C0.375 5.34518 0.654822 5.625 1 5.625H1.96657L5.37635 27.0579C5.41584 27.9023 6.32092 28.625 8 28.625H22C22.0672 28.625 22.1339 28.6142 22.1976 28.5929C22.5347 28.4806 23.0006 28.2288 23.3908 27.8178C23.783 27.4047 24.1116 26.8143 24.1246 26.0472L27.0421 5.625H28C28.3452 5.625 28.625 5.34518 28.625 5C28.625 4.65482 28.3452 4.375 28 4.375H19.625ZM25.7794 5.625H3.23229L6.61724 26.9018C6.62015 26.9201 6.62225 26.9385 6.62352 26.957C6.6293 26.9609 6.7443 27.375 8 27.375H21.8863C22.0523 27.3044 22.2858 27.1662 22.4842 26.9572C22.709 26.7204 22.875 26.4099 22.875 26C22.875 25.9704 22.8771 25.9409 22.8813 25.9116L25.7794 5.625ZM10 7.875C10.3452 7.875 10.625 8.15482 10.625 8.5V24C10.625 24.3452 10.3452 24.625 10 24.625C9.65482 24.625 9.375 24.3452 9.375 24V8.5C9.375 8.15482 9.65482 7.875 10 7.875ZM14.5 7.875C14.8452 7.875 15.125 8.15482 15.125 8.5V24C15.125 24.3452 14.8452 24.625 14.5 24.625C14.1548 24.625 13.875 24.3452 13.875 24V8.5C13.875 8.15482 14.1548 7.875 14.5 7.875ZM19 7.875C19.3452 7.875 19.625 8.15482 19.625 8.5V24C19.625 24.3452 19.3452 24.625 19 24.625C18.6548 24.625 18.375 24.3452 18.375 24V8.5C18.375 8.15482 18.6548 7.875 19 7.875Z" fill="#333333"/>
</svg>
