<svg width="31" height="25" viewBox="0 0 31 25" fill="none" xmlns="http://www.w3.org/2000/svg">
<path fill-rule="evenodd" clip-rule="evenodd" d="M25.9623 2.68137C26.1363 2.38773 26.5137 2.288 26.8101 2.45735L30.3101 4.45735C30.4555 4.54044 30.5615 4.67841 30.6043 4.84032C30.647 5.00224 30.6231 5.17455 30.5377 5.31863L22.4337 18.9941L18.7462 20.5745C18.5531 20.6572 18.3313 20.6374 18.1559 20.5218C17.9806 20.4061 17.875 20.2101 17.875 20V16.3287L25.9623 2.68137ZM26.7241 3.84788L19.125 16.6713V19.0522L21.5663 18.0059L29.1386 5.22762L26.7241 3.84788Z" fill="#333333"/>
<path fill-rule="evenodd" clip-rule="evenodd" d="M28.1899 7.54265L24.6899 5.54265L25.3101 4.45735L28.8101 6.45735L28.1899 7.54265Z" fill="#333333"/>
<path fill-rule="evenodd" clip-rule="evenodd" d="M0.375 3C0.375 1.55025 1.55025 0.375 3 0.375H22C23.4497 0.375 24.625 1.55025 24.625 3V3.5C24.625 3.84518 24.3452 4.125 24 4.125C23.6548 4.125 23.375 3.84518 23.375 3.5V3C23.375 2.24061 22.7594 1.625 22 1.625H3C2.24061 1.625 1.625 2.24061 1.625 3V22C1.625 22.7594 2.24061 23.375 3 23.375H22C22.7594 23.375 23.375 22.7594 23.375 22V20C23.375 19.6548 23.6548 19.375 24 19.375C24.3452 19.375 24.625 19.6548 24.625 20V22C24.625 23.4497 23.4497 24.625 22 24.625H3C1.55025 24.625 0.375 23.4497 0.375 22V3ZM17.5 3.375C17.8452 3.375 18.125 3.65482 18.125 4V7.5C18.125 7.84518 17.8452 8.125 17.5 8.125C17.1548 8.125 16.875 7.84518 16.875 7.5V4C16.875 3.65482 17.1548 3.375 17.5 3.375Z" fill="#333333"/>
<path fill-rule="evenodd" clip-rule="evenodd" d="M6.625 1V8C6.625 8.75939 7.24061 9.375 8 9.375H18C18.7594 9.375 19.375 8.75939 19.375 8V1H20.625V8C20.625 9.44975 19.4497 10.625 18 10.625H8C6.55025 10.625 5.375 9.44975 5.375 8V1H6.625Z" fill="#333333"/>
</svg>
