<svg width="32" height="32" viewBox="0 0 32 32" fill="none" xmlns="http://www.w3.org/2000/svg">
<path fill-rule="evenodd" clip-rule="evenodd" d="M14 26.75C21.0416 26.75 26.75 21.0416 26.75 14C26.75 6.95837 21.0416 1.25 14 1.25C6.95837 1.25 1.25 6.95837 1.25 14C1.25 21.0416 6.95837 26.75 14 26.75ZM14 28C21.732 28 28 21.732 28 14C28 6.26801 21.732 0 14 0C6.26801 0 0 6.26801 0 14C0 21.732 6.26801 28 14 28Z" fill="#333333"/>
<path fill-rule="evenodd" clip-rule="evenodd" d="M22.8914 22.8914C23.1355 22.6473 23.5312 22.6473 23.7753 22.8914L31.1086 30.2247C31.3527 30.4688 31.3527 30.8645 31.1086 31.1086C30.8645 31.3527 30.4688 31.3527 30.2247 31.1086L22.8914 23.7753C22.6473 23.5312 22.6473 23.1355 22.8914 22.8914Z" fill="#333333"/>
</svg>
