<svg id="Layer_1" data-name="Layer 1" xmlns="http://www.w3.org/2000/svg" viewBox="0 0 84.2 82"><defs><style>.cls-1{fill:#ddd;}.cls-2{fill:#247eca;}</style></defs><title>orientation-vertical</title><g id="Layer_23_copy" data-name="Layer 23 copy"><g id="Layer_22_copy_2" data-name="Layer 22 copy 2"><path class="cls-1" d="M51.7,46.7H92V90.5H28V70.3a37.91,37.91,0,0,0,5.2.2c.1,0,.2,14.5.2,14.5H86.5V52.2H49.9" transform="translate(-7.9 -8.5)"/><path class="cls-2" d="M51.7,72.4H7.9V8.5H51.7M13.4,14V67H46.3V14Z" transform="translate(-7.9 -8.5)"/><path d="M66.8,61.5" transform="translate(-7.9 -8.5)"/><path class="cls-1" d="M87.5,35.9h4.6l-6.8,6.8-6.8-6.8H83a22.86,22.86,0,0,0-.2-2.5A18.24,18.24,0,0,0,67.2,17.8a19.48,19.48,0,0,0-2.5-.2v4.6l-6.8-6.8,6.8-6.8v4.6A22.64,22.64,0,0,1,87.5,35.9Z" transform="translate(-7.9 -8.5)"/></g></g></svg>