<svg xmlns="http://www.w3.org/2000/svg" viewBox="0 0 84 82.17"><defs><style>.cls-1{fill:#ddd;}.cls-2{fill:#247eca;}</style></defs><title>orientation-horizontal</title><g id="Layer_23" data-name="Layer 23"><g id="Layer_22_copy" data-name="Layer 22 copy"><path class="cls-1" d="M51.83,46.76V8.41H8V70.5H28.19A50.34,50.34,0,0,1,28,65.25c0-.08-14.54-.23-14.54-.23V13.89H46.35v34.7" transform="translate(-8 -8.41)"/><path class="cls-2" d="M28.09,46.76V90.59H92V46.76M86.52,85.11H33.57V52.24h53Z" transform="translate(-8 -8.41)"/><path d="M39,33.75" transform="translate(-8 -8.41)"/><path class="cls-1" d="M64.61,13V8.41l-6.85,6.85,6.85,6.85V17.54a20.37,20.37,0,0,1,2.46.19A18.2,18.2,0,0,1,82.69,33.34a22.61,22.61,0,0,1,.18,2.46H78.3l6.85,6.85L92,35.8H87.43A22.82,22.82,0,0,0,64.61,13Z" transform="translate(-8 -8.41)"/></g></g></svg>